<?xml version="1.0" encoding="UTF-8"?>
<!DOCTYPE svg PUBLIC "-//W3C//DTD SVG 1.1//EN" "http://www.w3.org/Graphics/SVG/1.1/DTD/svg11.dtd">
<!-- Creator: CorelDRAW 2021 (64-Bit) -->
<svg xmlns="http://www.w3.org/2000/svg" xml:space="preserve" width="2.33419in" height="2.32069in" version="1.1" style="shape-rendering:geometricPrecision; text-rendering:geometricPrecision; image-rendering:optimizeQuality; fill-rule:evenodd; clip-rule:evenodd"
viewBox="0 0 1603.06 1593.8"
 xmlns:xlink="http://www.w3.org/1999/xlink"
 xmlns:xodm="http://www.corel.com/coreldraw/odm/2003">
 <defs>
  <style type="text/css">
   <![CDATA[
    .fil1 {fill:gold}
    .fil0 {fill:white}
   ]]>
  </style>
 </defs>
 <g id="Layer_x0020_1">
  <metadata id="CorelCorpID_0Corel-Layer"/>
  <g id="_2342101317424">
   <path class="fil0" d="M503.84 956.66l0 206.8 595.38 0 0 -206.8 155.46 129.47 201.91 168.15c-69.91,98.94 -161.66,181.33 -268.24,240.17l-375.37 -252.37 -397.78 252.64c-106.79,-58.86 -198.72,-141.35 -268.74,-240.44l201.91 -168.15 155.46 -129.47zm197.44 -829.05l55.86 323.79 -253.3 323.3 0 43.64 -255.71 94.15 -222.43 81.89c-16.77,-64.57 -25.7,-132.3 -25.7,-202.12 0,-19.81 0.72,-39.44 2.13,-58.88l535.29 -135.26 -127.68 -505.27c82,-46.04 172.93,-78.06 269.53,-92.85l22.01 127.61zm492.04 -34.76l-127.68 505.27 535.29 135.26c1.41,19.45 2.13,39.08 2.13,58.88 0,69.82 -8.93,137.55 -25.7,202.12l-222.43 -81.89 -255.71 -94.15 0 -43.64 -253.32 -323.14 55.88 -323.95 22.01 -127.61c96.6,14.79 187.52,46.81 269.53,92.85z"/>
   <path class="fil1" d="M613.55 1571.63c30.18,-74.17 102.97,-126.46 187.98,-126.46 85.01,0 157.8,52.29 187.97,126.46 -60.29,14.5 -123.23,22.17 -187.97,22.17 -64.75,0 -127.69,-7.67 -187.98,-22.17zm-386.5 -1338.31c60.43,63.48 74.7,161.51 28.65,241.27 -46.27,80.14 -138.97,116.77 -224.51,95.51 36.96,-128.41 105.17,-243.59 195.86,-336.78zm1338.53 315.97c-83.75,17.98 -173.08,-18.79 -218.22,-96.97 -43.28,-74.97 -33.28,-166.09 18.28,-229.49 90.84,90.01 160.26,201.61 199.93,326.45zm-920.78 473.2l0 -199.15 156.67 -199.98 156.78 200 0 199.14 -313.45 0z"/>
  </g>
 </g>
</svg>
