<?xml version="1.0" encoding="UTF-8"?>
<!DOCTYPE svg PUBLIC "-//W3C//DTD SVG 1.1//EN" "http://www.w3.org/Graphics/SVG/1.1/DTD/svg11.dtd">
<!-- Creator: CorelDRAW 2021 (64-Bit) -->
<svg xmlns="http://www.w3.org/2000/svg" xml:space="preserve" width="2.33418in" height="2.32069in" version="1.1" style="shape-rendering:geometricPrecision; text-rendering:geometricPrecision; image-rendering:optimizeQuality; fill-rule:evenodd; clip-rule:evenodd"
viewBox="0 0 821.65 816.91"
 xmlns:xlink="http://www.w3.org/1999/xlink"
 xmlns:xodm="http://www.corel.com/coreldraw/odm/2003">
 <defs>
  <style type="text/css">
   <![CDATA[
    .fil0 {fill:#002147}
    .fil1 {fill:gold}
   ]]>
  </style>
 </defs>
 <g id="Layer_x0020_1">
  <metadata id="CorelCorpID_0Corel-Layer"/>
  <g id="_2342103496592">
   <path class="fil0" d="M258.24 490.34l0 105.99 305.16 0 0 -106 79.68 66.36 103.49 86.19c-35.83,50.71 -82.86,92.94 -137.49,123.1l-192.4 -129.35 -203.89 129.49c-54.74,-30.17 -101.86,-72.45 -137.74,-123.24l103.49 -86.19 79.68 -66.36zm101.2 -424.93l28.63 165.96 -129.83 165.71 0 22.37 -131.06 48.26 -114.01 41.97c-8.6,-33.09 -13.17,-67.81 -13.17,-103.59 0,-10.15 0.37,-20.21 1.09,-30.18l274.36 -69.33 -65.44 -258.98c42.03,-23.6 88.63,-40.01 138.15,-47.59l11.28 65.41zm252.2 -17.82l-65.44 258.98 274.36 69.33c0.72,9.97 1.09,20.03 1.09,30.18 0,35.78 -4.57,70.5 -13.17,103.59l-114.01 -41.97 -131.07 -48.26 0 -22.37 -129.84 -165.63 28.64 -166.04 11.28 -65.41c49.51,7.58 96.12,23.99 138.15,47.59z"/>
   <path class="fil1" d="M314.48 805.54c15.47,-38.02 52.78,-64.82 96.35,-64.82 43.57,0 80.88,26.8 96.35,64.82 -30.9,7.43 -63.16,11.36 -96.35,11.36 -33.19,0 -65.45,-3.93 -96.35,-11.36zm-198.1 -685.95c30.97,32.54 38.29,82.78 14.68,123.66 -23.71,41.08 -71.23,59.85 -115.07,48.95 18.95,-65.82 53.9,-124.86 100.39,-172.62zm686.07 161.95c-42.93,9.22 -88.71,-9.63 -111.85,-49.7 -22.18,-38.43 -17.06,-85.13 9.37,-117.62 46.56,46.13 82.14,103.33 102.48,167.32zm-471.95 242.54l0 -102.08 80.3 -102.5 80.36 102.51 0 102.07 -160.66 0z"/>
  </g>
 </g>
</svg>
